<svg xmlns="http://www.w3.org/2000/svg" viewBox="0 0 2663.49 1920"><title>431614215_325749727172663_1267312856665379915_n</title><g id="შავ-თეთრი"><path d="M1612.06,1007.06v42.06q0,23.16-2.48,34a46.52,46.52,0,0,1-10.62,20.19,47.94,47.94,0,0,1-20.89,13.84q-12.75,4.47-29.3,4.47-18.48,0-31.3-3.82t-19.92-11.52a44.45,44.45,0,0,1-10.14-18.63q-3-10.93-3-32.81v-44q0-23.94,5.51-37.4t19.86-21.61q14.34-8.16,36.68-8.16,18.75,0,32.19,5.25t20.76,13.65a47.46,47.46,0,0,1,10,17.34Q1612.06,988.82,1612.06,1007.06ZM1556.35,997q0-13.2-1.51-16.63c-1-2.28-3.17-3.43-6.48-3.43s-5.52,1.15-6.62,3.43-1.65,7.83-1.65,16.63v77.51q0,12.16,1.65,15.86c1.1,2.46,3.26,3.68,6.48,3.68s5.49-1.12,6.55-3.36,1.58-7.07,1.58-14.49Z" style="fill:#d2c4d2"/><path d="M1611.54,836.56h-70.69v36.18q0,11.34,1.75,14.62t6.76,3.28c4.15,0,6.91-1.45,8.31-4.35s2.1-8.51,2.1-16.83V847.4h51.77v12.36q0,15.5-2.09,23.82t-9.8,17.77a47.45,47.45,0,0,1-19.54,14.19q-11.82,4.73-29.67,4.72-17.31,0-30.55-4.66t-20.61-12.8a45.25,45.25,0,0,1-10.21-17.9q-2.83-9.76-2.84-28.42V807.7q0-21.94,6.36-34.61t20.81-19.41q14.47-6.73,33.26-6.74,23,0,37.91,8.13t21,21.55q6,13.43,6,37.76Zm-55.35-27.23V797.11q0-13-1.48-16.77t-6.08-3.78q-5.69,0-7,3.21t-1.35,17.34v12.22Z" style="fill:#d2c4d2"/><path d="M1475.68,841.54h-116.2V802.59q0-36.83-3.31-46.1t-15.73-9.27q-10.77,0-14.63,7.94T1322,796v205.86q0,28.89,3.86,38t15.46,9.14q12.69,0,17.25-10.33t4.55-40.27V947.52h-23.46V882.34h136.07v230.24h-73l-10.74-30.73q-11.88,19.88-30,29.8t-42.66,9.94a114.61,114.61,0,0,1-54.84-13.65q-25.55-13.64-38.8-33.78a104.25,104.25,0,0,1-16.58-42.26q-3.32-22.11-3.31-66.37V838.09q0-61.46,6.9-89.29t39.61-51q32.7-23.17,84.59-23.18,51.06,0,84.73,20.14t43.89,47.82q10.2,27.69,10.21,80.41Z" style="fill:#d2c4d2"/><path d="M1879.13,919H1773.8v-66.3q0-28.9-3.38-36.08t-14.89-7.17q-13,0-16.51,8.71t-3.5,37.7v177.16q0,27.81,3.5,36.28t15.76,8.49q11.76,0,15.39-8.5t3.63-39.92V981.47h105.33v14.86q0,59.22-8.88,84T1831,1123.74q-30.4,18.63-74.94,18.64-46.29,0-76.31-15.79t-39.78-43.7q-9.75-27.92-9.76-84V887.47q0-41.24,3-61.85t17.89-39.69q14.88-19.09,41.28-30t60.67-11q46.54,0,76.81,16.94t39.79,42.24q9.49,25.29,9.5,78.69Z" style="fill:#d2c4d2"/><path d="M1937.08,1033.89h-51.23v-11.22q0-19.41,4.8-29.94t19.26-18.59q14.46-8.07,37.58-8.07,27.71,0,41.77,9.14t16.89,22.44q2.85,13.3,2.84,54.77v84h-53.12v-14.91a34.07,34.07,0,0,1-12.91,13.45q-7.9,4.49-18.86,4.48a48.54,48.54,0,0,1-26.29-7.5q-12-7.5-12-32.84v-13.74q0-18.78,6.35-25.59t31.5-15.88q26.9-9.82,28.79-13.23t1.89-13.87q0-13.11-2.09-17.08a7.26,7.26,0,0,0-7-4q-5.55,0-6.9,3.34t-1.35,17.33Zm-1.79,28.22q-13.12,9-15.21,15t-2.1,17.4q0,13,1.83,16.76c1.22,2.52,3.63,3.79,7.23,3.79q5.13,0,6.69-3t1.56-15.56Z" style="fill:#d2c4d2"/><path d="M2130.56,1022.55h-48.4v-9.08q0-11.6-1.41-14.69t-7.1-3.08c-3.07,0-5.36.94-6.9,2.83s-2.29,4.73-2.29,8.51q0,7.69,1.14,11.28t6.9,7.88q5.74,4.29,23.59,12.48,23.79,10.85,31.22,20.42t7.44,27.86q0,20.43-5.68,30.82t-19,16q-13.32,5.61-32.11,5.61-20.8,0-35.61-6.05T2022,1117q-5.55-10.34-5.54-31.26v-8.07h48.39v10.59q0,13.5,1.83,17.52t7.23,4q5.8,0,8.11-2.71t2.3-11.41q0-12-3-15t-31.76-17.9q-24.06-12.6-29.34-22.88t-5.27-24.39q0-20,5.68-29.56t19.26-14.69q13.59-5.16,31.56-5.17t30.35,4.23q12.51,4.22,19.2,11.15t8.11,12.86q1.41,5.93,1.42,18.53Z" style="fill:#d2c4d2"/><path d="M2201.25,949.81v26.35H2216v26.47h-14.74v89.5q0,16.51,1.83,18.4t15.21,1.9v27h-22q-18.66,0-26.63-1.45a29.11,29.11,0,0,1-14.06-6.68,21.94,21.94,0,0,1-7.57-12q-1.48-6.75-1.48-31.71v-85h-11.76V976.16h11.76V949.81Z" style="fill:#d2c4d2"/><g id="Layer_12" data-name="Layer 12"><path d="M611.39,1032.94s-11.56-.93-11.61,11.55,11.61,12.34,11.61,12.34H905.22a14.92,14.92,0,0,0,5.8-1.1c3.2-1.36,7-4.33,7.07-10.85A11,11,0,0,0,911,1034a15.42,15.42,0,0,0-5.9-1.1Z" style="fill:#d2c4d2"/><path d="M407.36,638.8l124-.23,62.72.13s18.74-1.75,39.07,25.16c0,0,19.1,24.24,38.2,23.93s169.71-.21,169.71-.21c.2,0,20.76.1,36-22.08s34.1-27.16,47.34-26.93,179.37.11,179.37.11,44.1.33,44.1,40.38c0,32.06,0,55.45,0,63.51a36.13,36.13,0,0,1-1.13,9.26c-2.92,11.16-13.07,33.49-47.54,33.54-46,.08-689,0-689,0S379.73,784.8,367,758.9a47.49,47.49,0,0,1-4.66-21V685.65a51.75,51.75,0,0,1,5.32-23.27C373.27,651.24,384.61,638.84,407.36,638.8Z" style="fill:#d2c4d2"/><path d="M411.35,784.18v246.39c0,2.44.11,4.88.34,7.3l.75,7.91s5.43,60.24,68.91,79.66a75.22,75.22,0,0,0,22.06,3.22h503.24a76,76,0,0,0,21.61-3.09c21-6.24,58.86-24.45,69.48-75.79a74,74,0,0,0,1.45-14.92V782.31h-23.8l-.08,3.05V786l0,244.12a74.14,74.14,0,0,1-16.45,47.05c-11.72,14.28-31.66,27.5-65.42,28.67L798,1105.78l-288.9.08s-51.35-2.38-69.38-51.14a74.94,74.94,0,0,1-4.5-26V784.63Z" style="fill:#d2c4d2"/><path d="M461.28,588.64V416.18a75.82,75.82,0,0,1,4.81-26.83c7.12-18.85,24.22-45.54,64.06-46.21,61.72-1,391.64-.11,391.64-.11s21.55-.3,41,18.5,74.71,74.55,74.71,74.55,12.63,10.89,12.84,43.54,0,109,0,109h-23.85l0-103a63.33,63.33,0,0,0-16.86-43.46c-.47-.5-1-1-1.46-1.51-16-16-57.71-57.81-57.71-57.81s-13.46-16.23-42.11-16.13-378.76.16-378.76.16-33.38,2.74-43.23,37.5a62.36,62.36,0,0,0-2.24,17l0,167.18Z" style="fill:#d2c4d2"/><ellipse cx="558.63" cy="859.15" rx="24.48" ry="23.91" style="fill:#d2c4d2"/><ellipse cx="656.96" cy="859.13" rx="23.87" ry="23.89" style="fill:#d2c4d2"/><ellipse cx="755.81" cy="859.1" rx="23.95" ry="23.86" style="fill:#d2c4d2"/><circle cx="853.66" cy="859.12" r="23.89" style="fill:#d2c4d2"/><ellipse cx="955.67" cy="860.05" rx="23.84" ry="23.95" transform="matrix(0.01, -1, 1, 0.01, 84.07, 1805.19)" style="fill:#d2c4d2"/><ellipse cx="611.1" cy="957.89" rx="23.92" ry="23.88" style="fill:#d2c4d2"/><ellipse cx="708.78" cy="957.91" rx="23.76" ry="23.9" style="fill:#d2c4d2"/><circle cx="807.8" cy="957.89" r="23.88" style="fill:#d2c4d2"/><circle cx="905.53" cy="957.81" r="23.8" style="fill:#d2c4d2"/></g></g></svg>